<svg xmlns="http://www.w3.org/2000/svg" version="1.1" xmlns:xlink="http://www.w3.org/1999/xlink" xmlns:svgjs="http://svgjs.dev/svgjs" width="1000" height="1000" viewBox="0 0 1000 1000"><rect width="1000" height="1000" fill="#ffffff"></rect><g transform="matrix(0.7,0,0,0.7,149.57575757575756,399.9738686711317)"><svg viewBox="0 0 396 113" data-background-color="#ffffff" preserveAspectRatio="xMidYMid meet" height="285" width="1000" xmlns="http://www.w3.org/2000/svg" xmlns:xlink="http://www.w3.org/1999/xlink"><g id="tight-bounds" transform="matrix(1,0,0,1,0.2400000000000091,0.15640521384520412)"><svg viewBox="0 0 395.52 112.68718957230962" height="112.68718957230962" width="395.52"><g><svg viewBox="0 0 598.6898089017699 170.57208735518702" height="112.68718957230962" width="395.52"><g transform="matrix(1,0,0,1,203.16980890176993,21.282657930840102)"><svg viewBox="0 0 395.52 128.00677149350682" height="128.00677149350682" width="395.52"><g><svg viewBox="0 0 395.52 128.00677149350682" height="128.00677149350682" width="395.52"><g><svg viewBox="0 0 395.52 69.0407359210231" height="69.0407359210231" width="395.52"><g transform="matrix(1,0,0,1,0,0)"><svg width="395.52" viewBox="1.9500000476837158 -37.75 222.8300018310547 38.900001525878906" height="69.0407359210231" data-palette-color="#3b3a3a"><path d="M21.35-10.75Q20.15-8 18.68-5.98 17.2-3.95 15.58-2.58 13.95-1.2 12.3-0.55 10.65 0.1 9.1 0.1L9.1 0.1Q7.55 0.1 6.28-0.6 5-1.3 4.05-2.7 3.1-4.1 2.53-6.15 1.95-8.2 1.95-10.95L1.95-10.95Q1.95-15.65 3.25-20.23 4.55-24.8 6.9-28.45 9.25-32.1 12.48-34.33 15.7-36.55 19.6-36.55L19.6-36.55Q20.8-36.55 21.9-36.05 23-35.55 23.8-34.65 24.6-33.75 25.08-32.45 25.55-31.15 25.55-29.55L25.55-29.55Q25.55-29.25 25.55-28.93 25.55-28.6 25.5-28.25L25.5-28.25 18.95-26.5Q18.35-27.75 17.55-27.75L17.55-27.75Q16.75-27.75 15.88-26.83 15-25.9 14.15-24.43 13.3-22.95 12.5-21.13 11.7-19.3 11.1-17.45 10.5-15.6 10.13-13.93 9.75-12.25 9.75-11.2L9.75-11.2Q9.75-9.6 10.18-8.95 10.6-8.3 11.3-8.3L11.3-8.3Q11.85-8.3 12.55-8.72 13.25-9.15 13.85-9.83 14.45-10.5 14.95-11.35 15.45-12.2 15.65-13.05L15.65-13.05 21.35-10.75ZM48.2-27.05Q48.2-22.95 47.32-19.33 46.45-15.7 45-12.68 43.55-9.65 41.62-7.28 39.7-4.9 37.6-3.23 35.5-1.55 33.35-0.68 31.2 0.2 29.25 0.2L29.25 0.2Q27.6 0.2 26.25-0.43 24.9-1.05 23.9-2.27 22.9-3.5 22.32-5.43 21.75-7.35 21.75-10.05L21.75-10.05Q21.75-12.85 22.45-15.95 23.15-19.05 24.35-22.1 25.55-25.15 27.3-27.9 29.05-30.65 31.15-32.77 33.25-34.9 35.65-36.15 38.05-37.4 40.65-37.4L40.65-37.4Q42.9-37.4 44.37-36.48 45.85-35.55 46.67-34.08 47.5-32.6 47.85-30.75 48.2-28.9 48.2-27.05L48.2-27.05ZM29.2-11.35Q29.2-10.8 29.4-10.2 29.6-9.6 29.95-9.15 30.3-8.7 30.82-8.38 31.35-8.05 31.95-8.05L31.95-8.05Q34.2-8.05 35.95-9.6 37.7-11.15 38.85-13.4 40-15.65 40.62-18.2 41.25-20.75 41.25-22.85L41.25-22.85Q41.25-23.45 41.17-24.15 41.1-24.85 40.87-25.45 40.65-26.05 40.17-26.48 39.7-26.9 38.9-26.9L38.9-26.9Q37.3-26.9 35.95-26.1 34.6-25.3 33.52-23.98 32.45-22.65 31.65-20.98 30.85-19.3 30.27-17.57 29.7-15.85 29.45-14.2 29.2-12.55 29.2-11.35L29.2-11.35ZM72.84-27.05Q72.84-22.95 71.97-19.33 71.09-15.7 69.65-12.68 68.2-9.65 66.27-7.28 64.34-4.9 62.25-3.23 60.15-1.55 58-0.68 55.85 0.2 53.9 0.2L53.9 0.2Q52.25 0.2 50.9-0.43 49.55-1.05 48.55-2.27 47.55-3.5 46.97-5.43 46.4-7.35 46.4-10.05L46.4-10.05Q46.4-12.85 47.1-15.95 47.8-19.05 49-22.1 50.2-25.15 51.95-27.9 53.7-30.65 55.8-32.77 57.9-34.9 60.3-36.15 62.7-37.4 65.3-37.4L65.3-37.4Q67.55-37.4 69.02-36.48 70.5-35.55 71.32-34.08 72.15-32.6 72.5-30.75 72.84-28.9 72.84-27.05L72.84-27.05ZM53.85-11.35Q53.85-10.8 54.05-10.2 54.25-9.6 54.6-9.15 54.95-8.7 55.47-8.38 56-8.05 56.6-8.05L56.6-8.05Q58.85-8.05 60.6-9.6 62.35-11.15 63.5-13.4 64.65-15.65 65.27-18.2 65.9-20.75 65.9-22.85L65.9-22.85Q65.9-23.45 65.82-24.15 65.75-24.85 65.52-25.45 65.3-26.05 64.82-26.48 64.34-26.9 63.55-26.9L63.55-26.9Q61.95-26.9 60.6-26.1 59.25-25.3 58.17-23.98 57.1-22.65 56.3-20.98 55.5-19.3 54.92-17.57 54.35-15.85 54.1-14.2 53.85-12.55 53.85-11.35L53.85-11.35ZM77.94-1.15L69.84 0.05Q71.34-6.95 72.64-13.55L72.64-13.55Q73.14-16.4 73.69-19.45 74.24-22.5 74.72-25.5 75.19-28.5 75.57-31.33 75.94-34.15 76.14-36.45L76.14-36.45Q77.29-36.35 78.74-36.27 80.19-36.2 81.44-36.1L81.44-36.1Q82.94-36 84.44-36L84.44-36Q84.39-35.8 84.29-35.25 84.19-34.7 84.04-33.93 83.89-33.15 83.72-32.2 83.54-31.25 83.34-30.3L83.34-30.3Q82.94-28.1 82.44-25.35L82.44-25.35 82.74-25.4Q83.24-26.2 84.17-27.63 85.09-29.05 86.09-30.65 87.09-32.25 88.04-33.73 88.99-35.2 89.64-36.25L89.64-36.25Q92.14-36.45 94.64-36.7 97.14-36.95 99.64-37.35L99.64-37.35Q97.29-34.2 95.09-31.15L95.09-31.15Q94.14-29.85 93.17-28.45 92.19-27.05 91.24-25.7 90.29-24.35 89.47-23.1 88.64-21.85 87.99-20.8L87.99-20.8Q89.09-15.75 90.59-11.05 92.09-6.35 93.64-1.45L93.64-1.45Q92.49-1.5 91.29-1.53 90.09-1.55 88.94-1.55L88.94-1.55Q87.49-1.55 86.14-1.53 84.79-1.5 83.34-1.45L83.34-1.45Q82.89-4.7 82.37-8.28 81.84-11.85 81.39-15.1L81.39-15.1 80.49-14.05Q80.14-12.55 79.72-10.35 79.29-8.15 78.89-6.1L78.89-6.1Q78.44-3.7 77.94-1.15L77.94-1.15ZM100.49-1Q100.04-1 98.74-0.88 97.44-0.75 96.04-0.58 94.64-0.4 93.52-0.25 92.39-0.1 92.29-0.05L92.29-0.05Q92.89-2.2 93.49-4.83 94.09-7.45 94.72-10.33 95.34-13.2 95.92-16.15 96.49-19.1 97.04-21.85L97.04-21.85Q98.29-28.25 99.49-35L99.49-35 107.29-36.25Q105.99-29.55 104.69-23.1L104.69-23.1Q104.14-20.35 103.56-17.4 102.99-14.45 102.47-11.55 101.94-8.65 101.42-5.93 100.89-3.2 100.49-1L100.49-1ZM108.74-1.2Q107.34-0.95 105.69-0.6 104.04-0.25 102.79 0.05L102.79 0.05Q103.39-2.1 103.96-4.78 104.54-7.45 105.11-10.4 105.69-13.35 106.21-16.38 106.74-19.4 107.24-22.2L107.24-22.2Q108.29-28.85 109.34-35.95L109.34-35.95 126.09-36.8 124.64-30.65 116.79-30.65 115.24-21.75Q116.79-21.8 118.19-21.8L118.19-21.8Q119.34-21.8 120.54-21.8 121.74-21.8 122.39-21.85L122.39-21.85Q122.24-20.45 122.01-19.1 121.79-17.75 121.59-16.4L121.59-16.4Q120.94-16.4 119.74-16.43 118.54-16.45 117.26-16.5 115.99-16.55 114.39-16.6L114.39-16.6 112.09-1.85Q110.39-1.55 108.74-1.2L108.74-1.2ZM132.03-1.8L123.48-0.75 125.79-10.8Q125.79-12.95 125.71-15.48 125.64-18 125.48-20.55 125.34-23.1 125.19-25.48 125.04-27.85 124.94-29.68 124.84-31.5 124.73-32.6 124.64-33.7 124.64-33.7L124.64-33.7 132.78-36.8 132.78-30.7Q132.78-29.45 132.78-28.15 132.78-26.85 132.76-25.6 132.74-24.35 132.74-23.25 132.74-22.15 132.74-21.4L132.74-21.4Q133.38-23.1 134.31-25.6 135.24-28.1 136.03-30.45L136.03-30.45Q136.99-33.2 137.99-36.25L137.99-36.25 145.74-34.5Q143.59-30.2 141.53-25.95L141.53-25.95Q140.69-24.1 139.74-22.13 138.78-20.15 137.84-18.18 136.88-16.2 135.99-14.35 135.09-12.5 134.34-10.9L134.34-10.9Q134.09-9.6 133.71-8.05 133.34-6.5 132.99-5.1L132.99-5.1Q132.53-3.45 132.03-1.8L132.03-1.8ZM146.93-4Q146.93-3.05 146.51-2.1 146.08-1.15 145.28-0.43 144.48 0.3 143.28 0.73 142.08 1.15 140.53 1.15L140.53 1.15Q139.48 1.15 138.63 0.75 137.78 0.35 137.26-0.33 136.73-1 136.43-1.85 136.13-2.7 136.13-3.55L136.13-3.55Q136.13-4.5 136.43-5.38 136.73-6.25 137.36-6.93 137.98-7.6 138.91-8.05 139.83-8.5 141.13-8.5L141.13-8.5Q144.03-8.5 145.48-7.13 146.93-5.75 146.93-4L146.93-4ZM167.23-10.75Q166.03-8 164.56-5.98 163.08-3.95 161.45-2.58 159.83-1.2 158.18-0.55 156.53 0.1 154.98 0.1L154.98 0.1Q153.43 0.1 152.16-0.6 150.88-1.3 149.93-2.7 148.98-4.1 148.41-6.15 147.83-8.2 147.83-10.95L147.83-10.95Q147.83-15.65 149.13-20.23 150.43-24.8 152.78-28.45 155.13-32.1 158.35-34.33 161.58-36.55 165.48-36.55L165.48-36.55Q166.68-36.55 167.78-36.05 168.88-35.55 169.68-34.65 170.48-33.75 170.95-32.45 171.43-31.15 171.43-29.55L171.43-29.55Q171.43-29.25 171.43-28.93 171.43-28.6 171.38-28.25L171.38-28.25 164.83-26.5Q164.23-27.75 163.43-27.75L163.43-27.75Q162.63-27.75 161.75-26.83 160.88-25.9 160.03-24.43 159.18-22.95 158.38-21.13 157.58-19.3 156.98-17.45 156.38-15.6 156-13.93 155.63-12.25 155.63-11.2L155.63-11.2Q155.63-9.6 156.06-8.95 156.48-8.3 157.18-8.3L157.18-8.3Q157.73-8.3 158.43-8.72 159.13-9.15 159.73-9.83 160.33-10.5 160.83-11.35 161.33-12.2 161.53-13.05L161.53-13.05 167.23-10.75ZM194.08-27.05Q194.08-22.95 193.2-19.33 192.33-15.7 190.88-12.68 189.43-9.65 187.5-7.28 185.58-4.9 183.48-3.23 181.38-1.55 179.23-0.68 177.08 0.2 175.13 0.2L175.13 0.2Q173.48 0.2 172.13-0.43 170.78-1.05 169.78-2.27 168.78-3.5 168.2-5.43 167.63-7.35 167.63-10.05L167.63-10.05Q167.63-12.85 168.33-15.95 169.03-19.05 170.23-22.1 171.43-25.15 173.18-27.9 174.93-30.65 177.03-32.77 179.13-34.9 181.53-36.15 183.93-37.4 186.53-37.4L186.53-37.4Q188.78-37.4 190.25-36.48 191.73-35.55 192.55-34.08 193.38-32.6 193.73-30.75 194.08-28.9 194.08-27.05L194.08-27.05ZM175.08-11.35Q175.08-10.8 175.28-10.2 175.48-9.6 175.83-9.15 176.18-8.7 176.7-8.38 177.23-8.05 177.83-8.05L177.83-8.05Q180.08-8.05 181.83-9.6 183.58-11.15 184.73-13.4 185.88-15.65 186.5-18.2 187.13-20.75 187.13-22.85L187.13-22.85Q187.13-23.45 187.05-24.15 186.98-24.85 186.75-25.45 186.53-26.05 186.05-26.48 185.58-26.9 184.78-26.9L184.78-26.9Q183.18-26.9 181.83-26.1 180.48-25.3 179.4-23.98 178.33-22.65 177.53-20.98 176.73-19.3 176.15-17.57 175.58-15.85 175.33-14.2 175.08-12.55 175.08-11.35L175.08-11.35ZM197.13-0.85L188.88-0.3Q191.07-6.95 193.07-13.35L193.07-13.35Q193.93-16.05 194.82-19 195.72-21.95 196.63-24.85 197.53-27.75 198.3-30.45 199.07-33.15 199.68-35.45L199.68-35.45Q202.43-35.45 204.88-35.75 207.32-36.05 210.18-36.3L210.18-36.3Q210.03-35.2 209.85-33.83 209.68-32.45 209.45-30.95 209.22-29.45 208.97-27.85 208.72-26.25 208.38-23.75 208.03-21.25 207.43-17.5L207.43-17.5 208.07-17.5Q209.53-21.3 210.47-23.83 211.43-26.35 212.03-27.95 212.63-29.55 213.25-31.08 213.88-32.6 214.45-33.98 215.03-35.35 215.53-36.4L215.53-36.4Q216.78-36.5 217.88-36.65 218.97-36.8 220.07-36.98 221.18-37.15 222.3-37.33 223.43-37.5 224.78-37.75L224.78-37.75Q224.28-34.85 223.82-31.8 223.38-28.75 223.03-25.73 222.68-22.7 222.35-19.75 222.03-16.8 221.78-14.15L221.78-14.15Q221.18-7.95 220.72-2.05L220.72-2.05 212.03-0.5Q212.03-0.75 212.1-1.85 212.18-2.95 212.3-4.55 212.43-6.15 212.65-8.1 212.88-10.05 213.1-12 213.32-13.95 213.57-15.78 213.82-17.6 214.07-18.9L214.07-18.9 213.63-18.9Q212.93-16.8 212.07-14.48 211.22-12.15 210.35-9.75 209.47-7.35 208.63-5.05 207.78-2.75 207.13-0.65L207.13-0.65Q205.38-0.6 204.13-0.53 202.88-0.45 201.22-0.35L201.22-0.35 202.82-18.9 202.07-18.9Q201.97-18.25 201.57-16.73 201.18-15.2 200.65-13.23 200.13-11.25 199.53-9.13 198.93-7 198.4-5.18 197.88-3.35 197.53-2.18 197.18-1 197.13-0.85L197.13-0.85Z" opacity="1" transform="matrix(1,0,0,1,0,0)" fill="#000000" class="undefined-text-0" data-fill-palette-color="primary" id="text-0"></path></svg></g></svg></g><g transform="matrix(1,0,0,1,0,85.33959669431455)"><svg viewBox="0 0 189.35000275749653 42.667174799192274" height="42.667174799192274" width="189.35000275749653"><g transform="matrix(1,0,0,1,0,0)"><svg width="189.35000275749653" viewBox="2 -39 205.24000549316406 46.25" height="42.667174799192274" data-palette-color="#528265"><path d="M16-11.7L16-1.45Q16-0.8 12.95-0.4 9.9 0 6.83 0 3.75 0 2.88-0.35 2-0.7 2-1.45L2-1.45 2-33.6Q2-34.9 5.28-35.45 8.55-36 13.55-36 18.55-36 20.03-35.98 21.5-35.95 23.5-35.8 25.5-35.65 26.68-35.3 27.85-34.95 29.28-34.4 30.7-33.85 31.5-32.98 32.3-32.1 33.05-30.9L33.05-30.9Q34.4-28.75 34.4-24.78 34.4-20.8 33.08-18.07 31.75-15.35 29.55-13.95L29.55-13.95Q35.3-4.9 35.3-2.45 35.3 0 25.45 0L25.45 0Q22.6 0 21.5-0.25 20.4-0.5 20.1-1.35L20.1-1.35 16.85-11.65 16-11.7ZM16-28.1L16-19.4 17.3-19.4Q20.2-19.4 20.2-23.9L20.2-23.9Q20.2-26.2 19.43-27.15 18.65-28.1 17.65-28.1L17.65-28.1 16-28.1ZM52.35-11.3L50.7-11.3Q50.7-8.05 53.8-8.05L53.8-8.05Q55.6-8.05 58.5-9.28 61.4-10.5 61.55-10.5L61.55-10.5Q62.5-10.5 64.05-7.65 65.6-4.8 65.6-3.45L65.6-3.45Q65.6-1.5 61.6-0.5 57.6 0.5 53.77 0.5 49.95 0.5 47.37-0.1 44.8-0.7 43.17-1.63 41.55-2.55 40.32-3.9 39.1-5.25 38.5-6.48 37.9-7.7 37.55-9.2L37.55-9.2Q37.05-11.4 37.05-13.75L37.05-13.75Q37.05-22.85 41.8-26.3L41.8-26.3Q44.15-28.05 47.05-28.75 49.95-29.45 53.9-29.45L53.9-29.45Q66.55-29.45 66.55-20.65L66.55-20.65Q66.55-11.3 52.35-11.3L52.35-11.3ZM50.6-18.6L50.6-18.6 50.6-15.3Q52.05-15.3 52.97-16.45 53.9-17.6 53.9-19.25L53.9-19.25Q53.9-22.25 52.35-22.25L52.35-22.25Q50.6-22.25 50.6-18.6ZM76-0.85L76-0.85Q74.8-1.4 73.42-2.5 72.05-3.6 71.15-5.1L71.15-5.1Q69.05-8.7 69.05-14.5L69.05-14.5Q69.05-18.1 70.2-20.93 71.35-23.75 73-25.3 74.65-26.85 76.8-27.85L76.8-27.85Q80.25-29.45 83.7-29.45L83.7-29.45Q89.5-29.45 91.77-28.55 94.05-27.65 94.05-25.5 94.05-23.35 93.27-20.93 92.5-18.5 91.25-18.5L91.25-18.5Q90.85-18.5 88.82-19.35 86.8-20.2 85.32-20.2 83.85-20.2 83.07-19.03 82.3-17.85 82.3-14.48 82.3-11.1 83-9.88 83.7-8.65 85.17-8.65 86.65-8.65 88.85-9.65 91.05-10.65 91.3-10.65L91.3-10.65Q92.25-10.65 93.12-8.4 94-6.15 94-4.4L94-4.4Q94-1.7 91.2-0.63 88.4 0.45 83.62 0.45 78.85 0.45 76-0.85ZM110.79-25.85L110.79-25.85 110.79-1.2Q110.79-0.65 107.92-0.33 105.04 0 102.02 0 98.99 0 98.12-0.28 97.24-0.55 97.24-1.2L97.24-1.2 97.24-24.95Q97.24-26.05 100.07-27.13 102.89-28.2 106.24-28.2L106.24-28.2Q110.79-28.2 110.79-25.85ZM103.99-39L103.99-39Q107.29-39 109.17-38.02 111.04-37.05 111.04-34.5L111.04-34.5Q111.04-30 104.04-30 97.04-30 97.04-34.5 97.04-39 103.99-39ZM114.54 6.05L114.54 6.05 114.54-25.75Q114.54-26.8 117.34-27.9 120.14-29 123.39-29L123.39-29Q124.89-29 125.74-28.65 126.59-28.3 126.79-27.95L126.79-27.95Q126.99-27.6 127.54-24.95L127.54-24.95 127.94-24.95Q128.04-25.4 128.84-26.35 129.64-27.3 130.47-27.9 131.29-28.5 132.84-28.98 134.39-29.45 136.47-29.45 138.54-29.45 140.24-28.53 141.94-27.6 142.77-26.38 143.59-25.15 144.07-23.28 144.54-21.4 144.62-20.28 144.69-19.15 144.69-17.03 144.69-14.9 144.54-12.83 144.39-10.75 143.99-8.6 143.59-6.45 142.84-4.9 142.09-3.35 140.94-2.1L140.94-2.1Q138.64 0.4 134.19 0.4L134.19 0.4Q132.59 0.4 131.37-0.08 130.14-0.55 129.54-1.2L129.54-1.2Q128.29-2.55 128.09-3.6L128.09-3.6 128.04-4.1 127.64-4.1 128.34 0.4 128.34 6.05Q128.34 6.6 125.47 6.93 122.59 7.25 119.57 7.25 116.54 7.25 115.54 6.98 114.54 6.7 114.54 6.05ZM131.14-14.65Q131.14-18.9 130.69-20.6 130.24-22.3 129.34-22.3 128.44-22.3 128.04-21.3L128.04-21.3 128.04-8.2Q128.04-6.9 129.39-6.9L129.39-6.9Q131.14-6.9 131.14-14.65L131.14-14.65ZM162.49-11.3L160.84-11.3Q160.84-8.05 163.94-8.05L163.94-8.05Q165.74-8.05 168.64-9.28 171.54-10.5 171.69-10.5L171.69-10.5Q172.64-10.5 174.19-7.65 175.74-4.8 175.74-3.45L175.74-3.45Q175.74-1.5 171.74-0.5 167.74 0.5 163.91 0.5 160.09 0.5 157.51-0.1 154.94-0.7 153.31-1.63 151.69-2.55 150.46-3.9 149.24-5.25 148.64-6.48 148.04-7.7 147.69-9.2L147.69-9.2Q147.19-11.4 147.19-13.75L147.19-13.75Q147.19-22.85 151.94-26.3L151.94-26.3Q154.29-28.05 157.19-28.75 160.09-29.45 164.04-29.45L164.04-29.45Q176.69-29.45 176.69-20.65L176.69-20.65Q176.69-11.3 162.49-11.3L162.49-11.3ZM160.74-18.6L160.74-18.6 160.74-15.3Q162.19-15.3 163.11-16.45 164.04-17.6 164.04-19.25L164.04-19.25Q164.04-22.25 162.49-22.25L162.49-22.25Q160.74-22.25 160.74-18.6ZM193.29 0.45L193.29 0.45Q184.99 0.45 181.14-1.15L181.14-1.15Q179.19-2 179.19-2.8L179.19-2.8Q179.19-4.85 180.39-7.6 181.59-10.35 182.49-10.35L182.49-10.35Q182.99-10.35 185.86-9.25 188.74-8.15 190.71-8.15 192.69-8.15 193.31-8.4 193.94-8.65 193.94-9.38 193.94-10.1 192.94-10.53 191.94-10.95 190.44-11.1 188.94-11.25 187.21-11.7 185.49-12.15 183.99-12.85 182.49-13.55 181.49-15.18 180.49-16.8 180.49-18.68 180.49-20.55 180.59-21.48 180.69-22.4 181.41-24.08 182.14-25.75 183.46-26.8 184.79-27.85 187.56-28.7 190.34-29.55 193.79-29.55 197.24-29.55 199.56-29.33 201.89-29.1 203.21-28.75 204.54-28.4 205.39-27.95L205.39-27.95Q206.84-27.2 206.84-26.3L206.84-26.3Q206.84-24.35 205.44-21.8 204.04-19.25 203.21-19.25 202.39-19.25 199.64-20.13 196.89-21 195.59-21L195.59-21Q193.49-21 193.49-19.8L193.49-19.8Q193.49-19.05 194.91-18.68 196.34-18.3 198.34-17.9 200.34-17.5 202.36-16.78 204.39-16.05 205.81-14.15 207.24-12.25 207.24-9.35L207.24-9.35Q207.24 0.45 193.29 0.45Z" opacity="1" transform="matrix(1,0,0,1,0,0)" fill="#000000" class="undefined-text-1" data-fill-palette-color="secondary" id="text-1"></path></svg></g></svg></g></svg></g></svg></g><g><svg viewBox="0 0 170.57208735518702 170.57208735518702" height="170.57208735518702" width="170.57208735518702"><g><svg></svg></g><g id="icon-0"><svg viewBox="0 0 170.57208735518702 170.57208735518702" height="170.57208735518702" width="170.57208735518702"><g><path d="M0 85.286c0-47.102 38.184-85.286 85.286-85.286 47.102 0 85.286 38.184 85.286 85.286 0 47.102-38.184 85.286-85.286 85.286-47.102 0-85.286-38.184-85.286-85.286zM85.286 164.346c43.664 0 79.06-35.396 79.06-79.06 0-43.664-35.396-79.06-79.06-79.06-43.664 0-79.06 35.396-79.06 79.06 0 43.664 35.396 79.06 79.06 79.06z" data-fill-palette-color="accent" fill="#000000" stroke="transparent"></path></g><g transform="matrix(1,0,0,1,44.101945014944796,35.863732421497005)"><svg viewBox="0 0 82.36819732529743 98.84462251219301" height="98.84462251219301" width="82.36819732529743"><g><svg xmlns="http://www.w3.org/2000/svg" xmlns:xlink="http://www.w3.org/1999/xlink" version="1.1" x="0" y="0" viewBox="42.686012268066406 0.01600000075995922 426.62799072265625 511.968017578125" enable-background="new 0 0 512 512" xml:space="preserve" height="98.84462251219301" width="82.36819732529743" class="icon-a-0" data-fill-palette-color="accent" id="a-0"><g fill="#528265" data-fill-palette-color="accent"><path d="M434.161 402.381l-1.594-0.453c-23.093-6.217-30.904-12.154-41.185-16.076-36.451-13.891-45.951-23.904-48.373-28.639-0.078-0.156-0.156-0.344-0.234-0.531l-0.219-31.842c1.75-2.359 3.469-4.75 5.125-7.219 22.655-10.984 25.717-28.311 21.218-42.654 4.499-13.686 7.093-28.029 7.093-42.591 0-6.538-0.375-12.89-1.109-19.038h1.109v-65.191c34.873-6.288 61.324-36.786 61.324-73.472 0-41.231-33.419-74.659-74.65-74.659-20.906 0-39.779 8.593-53.326 22.428C295.779 8.601 276.904 0.016 256 0.016c-18.28 0-35.029 6.577-48.013 17.483C195.02 6.593 178.286 0.016 160.006 0.016c-41.231 0-74.667 33.428-74.667 74.659 0 32.842 21.202 60.723 50.669 70.723v67.94h1.109c-0.734 6.148-1.109 12.5-1.109 19.038 0 14.562 2.594 28.905 7.093 42.606-4.499 14.328-1.438 31.654 21.218 42.639 1.656 2.469 3.375 4.859 5.125 7.219l-0.219 31.842c-0.078 0.188-0.156 0.375-0.234 0.531-2.422 4.734-11.922 14.748-48.388 28.639-10.266 3.922-18.077 9.859-41.17 16.076l-1.594 0.453c-21.014 6.953-35.153 26.451-35.153 48.451v61.152H256h213.314v-61.152C469.314 428.832 455.176 409.334 434.161 402.381zM190.551 356.838l0.062-8.156c21.733 20.639 46.106 33.42 65.387 33.42s43.654-12.781 65.387-33.42l0.062 8.156 0.031 4.531 0.719 1.594-66.105 43.168-65.777-44.324 0.203-0.453L190.551 356.838zM256 308.84c10.375 11.359 27.982 18.938 45.403 18.938 1.781 0 3.562-0.078 5.344-0.25 2.171-0.188 4.265-0.406 6.296-0.672-9.421 9.998-19.67 18.389-29.92 24.482-10.249 6.078-19.889 9.438-27.123 9.438-7.233 0-16.874-3.359-27.123-9.438-10.249-6.094-20.499-14.484-29.92-24.482 2.031 0.266 4.125 0.484 6.296 0.672 1.781 0.172 3.562 0.25 5.344 0.25C228.018 327.777 245.626 320.199 256 308.84zM304.794 306.293c-1.109 0.109-2.25 0.156-3.391 0.156-14.812 0-28.764-8.311-32.498-16.076-0.812-1.672-2.312-4.812 2.516-10.844 0.219-0.281 0.422-0.531 0.609-0.75 2.906 1.547 7.452 4.922 10.405 7.109 10.531 7.812 23.64 17.529 40.576 17.529 0.172 0 0.328 0 0.5 0C318.402 304.59 312.23 305.621 304.794 306.293zM243.095 290.373c-1.828 3.797-6.047 7.688-11.577 10.686-6.406 3.469-13.827 5.391-20.921 5.391-1.141 0-2.281-0.047-3.391-0.156-7.437-0.672-13.608-1.703-18.718-2.875 0.172 0 0.328 0 0.5 0 16.937 0 30.046-9.717 40.576-17.529 2.953-2.188 7.499-5.562 10.405-7.109 0.188 0.219 0.391 0.469 0.609 0.75C245.407 285.561 243.907 288.701 243.095 290.373zM106.682 74.675c0-29.404 23.92-53.325 53.324-53.325 12.343 0 24.265 4.273 33.764 12.062-7.858 11.819-12.437 26.006-12.437 41.263 0 5.891 4.781 10.671 10.671 10.671 5.891 0 10.672-4.78 10.672-10.671 0-29.404 23.92-53.325 53.324-53.325s53.324 23.921 53.324 53.325l0 0c0 5.891 4.781 10.671 10.672 10.671s10.672-4.78 10.672-10.671c0-0.016 0-0.039 0-0.055-0.016-12.491-3.094-24.264-8.531-34.607 1.672-1.953 3.5-3.797 5.453-5.507 9.702-8.484 22.154-13.156 35.076-13.156 29.404 0 53.324 23.921 53.324 53.325 0 12.577-4.453 24.788-12.546 34.373-8.015 9.491-19.108 15.921-31.233 18.108l-17.545 3.164v17.826 43.857H157.334v-46.606-15.288l-14.468-4.914C121.212 117.852 106.682 97.549 106.682 74.675zM353.385 213.338c0.844 6.156 1.281 12.516 1.281 19.038 0 6.664-0.672 13.46-1.984 20.312-2.469-1.523-4.875-2.367-7-2.367-0.078 0-0.156 0-0.234 0-14.451 0.438-21.404 15.438-21.404 15.438 2.156-0.664 4.266-0.961 6.234-0.961 9.967 0 16.061 7.67 3.468 14.467-3.671 1.984-7.249 2.828-10.733 2.828-19.108 0-35.451-25.35-52.091-25.35-4.921 0-9.874 2.227-14.921 7.984-5.046-5.758-9.999-7.984-14.921-7.984-16.64 0-32.982 25.35-52.091 25.35-3.483 0-7.062-0.844-10.749-2.828-12.577-6.797-6.483-14.467 3.484-14.467 1.969 0 4.078 0.297 6.234 0.961 0 0-6.953-15-21.405-15.438-0.078 0-0.156 0-0.234 0-2.125 0-4.531 0.844-7 2.367-1.312-6.844-1.984-13.647-1.984-20.312 0-6.522 0.438-12.882 1.281-19.038H353.385zM64.012 450.832c0-12.688 8.109-23.936 20.202-28.092l0.953-0.281c17.624-4.75 27.764-9.594 35.17-13.141 3.047-1.453 5.468-2.609 7.874-3.531 13.39-5.109 23.749-9.889 31.795-14.311v99.166H64.012V450.832zM181.333 490.643v-109.15l74.573 50.246 74.762-48.824v107.729H256 181.333zM447.988 490.643h-95.994v-99.166c8.047 4.422 18.405 9.201 31.811 14.326 2.391 0.906 4.812 2.062 7.859 3.516 7.405 3.547 17.545 8.391 35.17 13.156l0.953 0.266c12.092 4.156 20.201 15.404 20.201 28.092V490.643z" fill="#000000" data-fill-palette-color="accent"></path><path d="M224.002 426.646c-5.89 0-10.671 4.779-10.671 10.67s4.781 10.672 10.671 10.672c5.891 0 10.672-4.781 10.672-10.672S229.893 426.646 224.002 426.646z" fill="#000000" data-fill-palette-color="accent"></path><path d="M224.002 469.314c-5.89 0-10.671 4.781-10.671 10.672s4.781 10.656 10.671 10.656c5.891 0 10.672-4.766 10.672-10.656S229.893 469.314 224.002 469.314z" fill="#000000" data-fill-palette-color="accent"></path><path d="M287.998 447.988c5.891 0 10.672-4.781 10.672-10.672s-4.781-10.67-10.672-10.67-10.672 4.779-10.672 10.67S282.107 447.988 287.998 447.988z" fill="#000000" data-fill-palette-color="accent"></path><path d="M287.998 469.314c-5.891 0-10.672 4.781-10.672 10.672s4.781 10.656 10.672 10.656 10.672-4.766 10.672-10.656S293.889 469.314 287.998 469.314z" fill="#000000" data-fill-palette-color="accent"></path></g></svg></g></svg></g></svg></g></svg></g></svg></g><defs></defs></svg><rect width="395.52" height="112.68718957230962" fill="none" stroke="none" visibility="hidden"></rect></g></svg></g></svg>