<svg xmlns="http://www.w3.org/2000/svg" version="1.1" xmlns:xlink="http://www.w3.org/1999/xlink" xmlns:svgjs="http://svgjs.dev/svgjs" width="1000" height="1125" viewBox="0 0 1000 1125"><g transform="matrix(1,0,0,1,0.0005762637636053114,0)"><svg viewBox="0 0 320 360" data-background-color="#ffffff" preserveAspectRatio="xMidYMid meet" height="1125" width="1000" xmlns="http://www.w3.org/2000/svg" xmlns:xlink="http://www.w3.org/1999/xlink"><g id="tight-bounds" transform="matrix(1,0,0,1,0.00018440440442191175,0)"><svg viewBox="0 0 320 360" height="360" width="320"><g><svg></svg></g><g><svg viewBox="0 0 320 360" height="360" width="320"><g><path xmlns="http://www.w3.org/2000/svg" d="M294.684 112.125c-8.775-10.699-25.381-16.201-43-22.006-7.56-2.498-15.357-5.097-22.985-8.235-7.695-3.173-15.256-7.257-22.613-11.172-14.952-8.033-30.41-16.336-46.105-16.336-15.661 0-31.119 8.303-46.071 16.336-7.358 3.949-14.952 8.033-22.648 11.205-7.594 3.139-15.425 5.704-22.985 8.236-17.618 5.839-34.224 11.341-42.999 22.006-11.712 14.277-11.442 35.439-11.172 57.817 0.034 3.375 0.068 6.717 0.067 10.024 0 3.308-0.034 6.649-0.101 10.024-0.27 22.411-0.54 43.54 11.172 57.851 8.775 10.666 25.381 16.167 42.966 22.006 7.56 2.498 15.357 5.097 23.019 8.235 7.695 3.173 15.256 7.223 22.579 11.172 14.986 8.067 30.444 16.37 46.105 16.37 15.695 0 31.153-8.303 46.105-16.336 7.358-3.949 14.918-8.033 22.614-11.172 7.594-3.139 15.357-5.704 22.884-8.202 17.72-5.873 34.326-11.374 43.101-22.039 11.712-14.277 11.442-35.439 11.171-57.817-0.034-3.409-0.101-6.75-0.101-10.058 0-3.308 0.034-6.649 0.101-9.991 0.371-22.479 0.641-43.641-11.104-57.918zM305.552 103.215c-15.728-19.171-45.801-23.727-71.486-34.326-22.985-9.45-46.375-28.588-74.051-28.587-27.676 0-51.066 19.137-74.052 28.587-25.719 10.598-55.758 15.155-71.486 34.326-17.078 20.791-14.311 50.121-14.311 76.785 0 26.63-2.768 55.994 14.277 76.785 15.728 19.171 45.801 23.727 71.487 34.326 22.985 9.484 46.375 28.588 74.051 28.587 27.676 0 51.066-19.103 74.051-28.587 25.719-10.598 55.758-15.155 71.486-34.326 17.045-20.791 14.277-50.121 14.277-76.785 0.068-26.664 2.835-55.994-14.243-76.785zM309.872 189.923c0.304 23.221 0.574 45.059-12.083 60.483-9.518 11.577-26.664 17.281-44.822 23.289-7.56 2.498-15.29 5.063-22.715 8.134-7.493 3.071-14.952 7.088-22.175 10.969-15.458 8.303-31.355 16.842-48.062 16.842-16.707 0-32.604-8.539-47.995-16.808-7.257-3.915-14.75-7.932-22.243-11.003-7.527-3.105-15.256-5.67-22.748-8.134-18.192-6.008-35.338-11.712-44.823-23.289-12.623-15.391-12.353-37.262-12.083-60.415 0.034-3.375 0.101-6.683 0.101-9.991 0-3.308-0.034-6.615-0.067-9.991-0.304-23.154-0.574-45.025 12.083-60.415 9.518-11.577 26.664-17.247 44.822-23.289 7.527-2.498 15.256-5.063 22.749-8.134 7.493-3.105 14.986-7.122 22.242-11.003 15.391-8.269 31.322-16.842 47.995-16.842 16.673 0 32.604 8.539 47.995 16.808 7.257 3.915 14.75 7.932 22.243 11.003 7.493 3.105 15.256 5.637 22.715 8.134 18.158 6.008 35.338 11.712 44.822 23.289 12.657 15.425 12.387 37.262 12.083 60.416-0.034 3.409-0.101 6.717-0.101 9.99 0 3.308 0.034 6.615 0.067 9.957z" fill="#50a060" fill-rule="nonzero" stroke="none" stroke-width="1" stroke-linecap="butt" stroke-linejoin="miter" stroke-miterlimit="10" stroke-dasharray="" stroke-dashoffset="0" font-family="none" font-weight="none" font-size="none" text-anchor="none" style="mix-blend-mode: normal" data-fill-palette-color="tertiary"></path></g><g transform="matrix(1,0,0,1,72.62946482050434,108)"><svg viewBox="0 0 174.74107035899132 144" height="144" width="174.74107035899132"><g><svg viewBox="0 0 192 158.22267737744443" height="144" width="174.74107035899132"><g transform="matrix(1,0,0,1,0,122.72464627087041)"><svg viewBox="0 0 192 35.498031106574004" height="35.498031106574004" width="192"><g><svg viewBox="0 0 192 35.498031106574004" height="35.498031106574004" width="192"><g><svg viewBox="0 0 192 26.915960668803763" height="26.915960668803763" width="192"><g transform="matrix(1,0,0,1,0,0)"><svg width="192" viewBox="0.6925711035728455 -32.83403778076172 318.0037536621094 44.580055236816406" height="26.915960668803763" data-palette-color="#ffffff"><path d="M13.736-24.4c2.388-0.298 4.534-0.226 6.436 0.215 1.903 0.448 2.926 1.244 3.069 2.389 0.144 1.151-0.113 2.624-0.769 4.419-0.656 1.795-1.282 2.73-1.877 2.804v0c-0.159 0.02-0.358-0.046-0.599-0.198-0.235-0.159-0.749-0.296-1.543-0.412-0.8-0.115-1.478-0.138-2.034-0.068v0c-1.899 0.237-3.346 1.099-4.344 2.587-0.997 1.488-1.322 3.618-0.976 6.39 0.345 2.765 1.2 4.745 2.564 5.938 1.366 1.2 2.965 1.686 4.798 1.458v0c0.754-0.094 1.584-0.308 2.489-0.643 0.906-0.328 1.534-0.712 1.882-1.152v0c0.058-0.074 0.186-0.124 0.385-0.149 0.192-0.024 0.605 0.297 1.239 0.964 0.635 0.673 1.255 1.58 1.861 2.721 0.605 1.134 0.948 2.028 1.03 2.683v0c0.16 1.283-0.695 2.425-2.566 3.424-1.871 0.999-4.149 1.666-6.835 2.001v0c-4.326 0.54-8.072-0.542-11.238-3.244-3.165-2.702-5.095-6.832-5.788-12.389-0.692-5.55 0.195-10.095 2.663-13.634 2.475-3.534 5.859-5.568 10.153-6.104zM46.002 7.952c-4.624 0.455-8.538-0.687-11.742-3.427-3.204-2.74-5.091-7.009-5.661-12.807-0.571-5.805 0.466-10.349 3.111-13.63 2.645-3.275 6.294-5.141 10.944-5.599 4.651-0.458 8.551 0.643 11.7 3.301 3.149 2.658 5.017 6.972 5.604 12.943 0.587 5.965-0.44 10.544-3.08 13.738-2.633 3.2-6.258 5.027-10.876 5.481zM43.466-18.034c-1.579 0.155-2.832 1.009-3.758 2.56-0.926 1.551-1.26 3.634-1.003 6.248 0.257 2.607 0.964 4.561 2.124 5.86 1.153 1.3 2.562 1.868 4.227 1.704 1.659-0.163 2.936-1.006 3.831-2.527 0.896-1.515 1.215-3.586 0.957-6.213-0.258-2.627-0.991-4.595-2.199-5.903-1.207-1.308-2.6-1.884-4.179-1.729zM79.984 5.147c-4.636 0.321-8.515-0.934-11.638-3.765-3.123-2.831-4.886-7.153-5.289-12.965-0.403-5.819 0.765-10.331 3.503-13.535 2.739-3.197 6.439-4.957 11.102-5.28 4.662-0.323 8.529 0.889 11.599 3.637 3.071 2.748 4.813 7.114 5.227 13.1 0.414 5.979-0.744 10.527-3.475 13.643-2.724 3.122-6.401 4.844-11.029 5.165zM78.199-20.902c-1.583 0.11-2.859 0.926-3.83 2.45-0.97 1.524-1.365 3.596-1.183 6.217 0.181 2.614 0.832 4.587 1.954 5.919 1.115 1.333 2.507 1.941 4.176 1.826 1.663-0.115 2.963-0.92 3.902-2.416 0.939-1.488 1.318-3.55 1.136-6.183-0.182-2.634-0.858-4.622-2.027-5.964-1.169-1.342-2.545-1.959-4.128-1.849zM108.666-9.617l0.498 11.929c0.021 0.493-1.518 0.804-4.616 0.933v0l-2.783-0.034c-1.651-0.065-2.483-0.26-2.497-0.586v0l-1.384-33.211c-0.024-0.566 1.613-0.918 4.91-1.056 3.297-0.137 4.958 0.077 4.981 0.643v0l0.528 12.669 5.517-12.921c0.214-0.476 1.523-0.764 3.927-0.864v0c4.39-0.183 6.717 0.1 6.982 0.85v0c0.003 0.067-0.011 0.134-0.042 0.202v0l-7.964 15.906 10.576 13.391c0.003 0.067-0.302 0.36-0.914 0.878v0c-1.457 1.382-3.196 2.495-5.215 3.341v0c-0.616 0.259-1.238 0.402-1.864 0.428v0l-1.193-0.051c-1.064-0.223-1.914-0.864-2.553-1.925v0l-6.094-10.555zM129.396-6.285l3.419-0.066-0.344-17.637-3.52 0.069c-0.56 0.011-0.97-0.691-1.231-2.107v0c-0.114-0.691-0.177-1.4-0.192-2.126-0.014-0.727 0.022-1.437 0.108-2.133v0c0.206-1.424 0.588-2.142 1.149-2.153v0l16.636-0.325c0.567-0.011 0.96 0.691 1.182 2.107v0c0.147 0.691 0.227 1.399 0.241 2.126 0.014 0.727-0.039 1.438-0.158 2.134v0c-0.166 1.424-0.532 2.141-1.098 2.151v0l-3.309 0.065 0.345 17.637 3.459-0.068c0.567-0.011 0.977 0.691 1.231 2.106v0c0.147 0.691 0.227 1.399 0.242 2.126 0.014 0.727-0.039 1.438-0.158 2.134v0c-0.199 1.424-0.582 2.142-1.149 2.152v0l-16.686 0.327c-0.56 0.011-0.954-0.691-1.182-2.108v0c-0.147-0.691-0.227-1.399-0.241-2.125-0.014-0.727 0.039-1.438 0.158-2.134v0c0.172-1.424 0.538-2.141 1.098-2.152zM151.718-32.804l17.48-0.03c0.567-0.001 0.852 1.462 0.857 4.389 0.005 2.92-0.276 4.38-0.843 4.381v0l-9.06 0.015 0.01 5.65 6.04-0.01c0.567-0.001 0.852 1.279 0.857 3.839 0.004 2.56-0.26 3.84-0.794 3.841v0l-6.09 0.01 0.02 11.94c0.001 0.46-0.619 0.764-1.858 0.913-1.24 0.155-2.27 0.234-3.09 0.236v0l-2.33-0.096c-1.62-0.197-2.431-0.526-2.431-0.986v0l-0.056-32.8c-0.001-0.527 0.105-0.874 0.318-1.041 0.213-0.167 0.536-0.251 0.97-0.251zM187.411-20.701l4.391-10.001c0.453-1.15 2.579-1.681 6.379-1.594v0c0.953 0.022 2.081 0.115 3.384 0.278 1.303 0.163 1.903 0.344 1.798 0.542v0l-10.773 20.457-0.278 12.087c-0.013 0.56-0.932 0.935-2.757 1.127v0c-0.929 0.112-1.837 0.158-2.724 0.137-0.893-0.021-1.785-0.091-2.676-0.211v0c-1.807-0.275-2.704-0.709-2.69-1.303v0l0.271-11.787-10.167-21.139c-0.129-0.203 0.552-0.377 2.043-0.523 1.491-0.152 2.746-0.217 3.765-0.194v0c4.059 0.093 6.275 0.741 6.648 1.944v0zM212.274-5.956l-0.355 9.063c-0.009 0.233-1.573 0.289-4.69 0.167-3.118-0.122-4.673-0.283-4.665-0.483v0l0.349-8.913c0.011-0.293 1.576-0.379 4.694-0.257 3.118 0.122 4.673 0.263 4.667 0.423zM231.278-31.152c2.403 0.133 4.501 0.586 6.294 1.359 1.793 0.78 2.658 1.746 2.595 2.897-0.064 1.158-0.579 2.562-1.545 4.212-0.966 1.649-1.748 2.457-2.347 2.424v0c-0.16-0.009-0.344-0.109-0.554-0.301-0.203-0.198-0.684-0.425-1.445-0.681-0.767-0.256-1.43-0.399-1.989-0.43v0c-1.91-0.105-3.489 0.485-4.735 1.771-1.246 1.287-1.946 3.324-2.101 6.114-0.154 2.782 0.335 4.883 1.465 6.3 1.13 1.424 2.617 2.188 4.461 2.29v0c0.759 0.042 1.614-0.021 2.564-0.189 0.95-0.161 1.636-0.427 2.057-0.798v0c0.07-0.063 0.205-0.089 0.405-0.078 0.193 0.011 0.542 0.401 1.047 1.17 0.505 0.776 0.953 1.779 1.346 3.009 0.393 1.224 0.572 2.165 0.535 2.823v0c-0.071 1.291-1.116 2.262-3.135 2.912-2.019 0.65-4.38 0.9-7.082 0.751v0c-4.353-0.24-7.847-1.972-10.479-5.196-2.633-3.223-3.795-7.631-3.487-13.223 0.308-5.585 1.992-9.899 5.052-12.941 3.065-3.036 6.758-4.434 11.078-4.195zM257.259 6.434c-4.631-0.377-8.279-2.199-10.943-5.465-2.664-3.267-3.759-7.804-3.287-13.612 0.473-5.814 2.303-10.1 5.491-12.857 3.187-2.751 7.109-3.936 11.768-3.557 4.658 0.379 8.299 2.157 10.923 5.334 2.624 3.177 3.693 7.755 3.207 13.735-0.486 5.974-2.313 10.296-5.48 12.968-3.161 2.679-7.054 3.83-11.679 3.454zM259.397-19.588c-1.581-0.129-2.966 0.488-4.154 1.849-1.188 1.361-1.888 3.351-2.101 5.969-0.212 2.611 0.136 4.66 1.045 6.145 0.903 1.485 2.188 2.295 3.856 2.431 1.661 0.135 3.068-0.466 4.22-1.804 1.152-1.331 1.835-3.312 2.049-5.943 0.214-2.631-0.156-4.698-1.111-6.2-0.955-1.502-2.223-2.318-3.804-2.447zM310.995 11.602v0c-2.914-0.333-4.334-0.827-4.259-1.483v0l1.22-19.859-8.293 19.304c-0.177 0.376-1.315 0.444-3.415 0.204-2.1-0.24-3.162-0.542-3.188-0.908v0l-3.89-20.936-2.927 19.554c-0.089 0.486-0.75 0.753-1.984 0.8-1.239 0.04-2.259 0.014-3.06-0.077-0.808-0.092-1.581-0.231-2.318-0.416v0c-1.55-0.412-2.275-0.911-2.175-1.496v0l4.785-31.863c0.09-0.788 2.135-0.954 6.136-0.497v0c1.179 0.135 2.613 0.389 4.301 0.762 1.688 0.381 2.598 0.843 2.731 1.389v0l3.743 16.139 6.605-15.008c0.389-0.821 2.7-0.99 6.932-0.507v0c1.219 0.139 2.662 0.395 4.331 0.766 1.668 0.378 2.476 0.796 2.424 1.253v0l-2.256 32.454c-0.041 0.358-0.713 0.546-2.017 0.565-1.297 0.02-2.439-0.027-3.426-0.14z" opacity="1" transform="matrix(1,0,0,1,0,0)" fill="#ffffff" class="undefined-text-0" data-fill-palette-color="quaternary" id="text-0"></path></svg></g></svg></g><g transform="matrix(1,0,0,1,57.4368,29.08650174398257)"><svg viewBox="0 0 77.1264 6.411529362591432" height="6.411529362591432" width="77.1264"><g transform="matrix(1,0,0,1,0,0)"><svg width="77.1264" viewBox="0 -35.79999923706055 430.6199951171875 35.79999923706055" height="6.411529362591432" data-palette-color="#ffffff"><path d="M32.8-2.15L37.65-2.15 37.65 0 26.85 0 18.5-11.75 10.75-11.75 10.75 0 0 0 0-2.15 4.85-2.15 4.85-34.95 17.85-34.95Q25.85-34.95 29.3-32.25 32.75-29.55 32.75-23.6L32.75-23.6Q32.75-14.95 25.2-12.7L25.2-12.7 32.8-2.15ZM18.1-17.1Q23.1-17.1 24.9-18.65 26.7-20.2 26.7-23.63 26.7-27.05 24.85-28.33 23-29.6 18.25-29.6L18.25-29.6 10.75-29.6 10.75-17.1 18.1-17.1ZM36.4-2.15L41.25-2.15 41.25-34.95 65.8-34.95 65.8-29.4 47.15-29.4 47.15-20.15 63.9-20.15 63.9-14.9 47.15-14.9 47.15-5.55 66.4-5.55 66.4-2.15 71.25-2.15 71.25 0 36.4 0 36.4-2.15ZM99.34-2.15L105.9-2.15 105.9 0 69.09 0 69.09-2.15 80.19-2.15Q76.25-4.5 73.97-8.55 71.69-12.6 71.69-17.7L71.69-17.7Q71.69-25.4 77.02-30.6 82.34-35.8 90.47-35.8 98.59-35.8 104.05-29.8L104.05-29.8 100.3-25.7Q97.8-28.1 95.57-29.05 93.34-30 90.34-30L90.34-30Q85.05-30 81.44-26.58 77.84-23.15 77.84-17.82 77.84-12.5 81.42-8.93 85-5.35 89.89-5.35L89.89-5.35Q92.94-5.35 95.14-6.38 97.34-7.4 99.75-9.65L99.75-9.65 103.55-5.75Q101.34-3.35 99.34-2.15L99.34-2.15ZM105.89-2.15L110.74-2.15 110.74-34.95 116.64-34.95 116.64-2.15 121.49-2.15 121.49 0 105.89 0 105.89-2.15ZM132.24-2.15L155.69-2.15 155.69 0 121.49 0 121.49-2.15 126.34-2.15 126.34-34.95 138.34-34.95Q146.29-34.95 149.94-31.9 153.59-28.85 153.59-22.5 153.59-16.15 149.87-13.2 146.14-10.25 138.44-10.25L138.44-10.25 132.24-10.25 132.24-2.15ZM139.09-15.6Q143.99-15.6 145.77-17.48 147.54-19.35 147.54-22.98 147.54-26.6 145.29-28.1 143.04-29.6 138.24-29.6L138.24-29.6 132.24-29.6 132.24-15.6 139.09-15.6ZM155.69-2.15L160.54-2.15 160.54-34.95 185.09-34.95 185.09-29.4 166.44-29.4 166.44-20.15 183.19-20.15 183.19-14.9 166.44-14.9 166.44-5.55 185.69-5.55 185.69-2.15 190.54-2.15 190.54 0 155.69 0 155.69-2.15ZM213.63-2.15L219.88-2.15 219.88 0 188.38 0 188.38-2.15 194.78-2.15Q192.38-3.4 190.38-5.25L190.38-5.25 194.08-9.7Q199.38-5.1 205.08-5.1L205.08-5.1Q207.94-5.1 209.61-6.33 211.28-7.55 211.28-9.58 211.28-11.6 209.71-12.73 208.13-13.85 204.28-14.78 200.44-15.7 198.44-16.48 196.44-17.25 194.88-18.5L194.88-18.5Q191.78-20.85 191.78-25.7 191.78-30.55 195.31-33.18 198.83-35.8 204.03-35.8L204.03-35.8Q207.38-35.8 210.69-34.7 213.98-33.6 216.38-31.6L216.38-31.6 213.23-27.15Q211.69-28.55 209.03-29.45 206.38-30.35 203.81-30.35 201.23-30.35 199.58-29.3 197.94-28.25 197.94-26.13 197.94-24 199.58-22.88 201.23-21.75 206.61-20.45 211.98-19.15 214.71-16.8 217.44-14.45 217.44-10.2L217.44-10.2Q217.44-5.05 213.63-2.15L213.63-2.15ZM219.88-2.15L233.58-2.15 233.58 0 219.88 0 219.88-2.15ZM244.33-2.15L263.78-2.15 263.78 0 233.58 0 233.58-2.15 238.43-2.15 238.43-34.95 261.73-34.95 261.68-29.45 244.33-29.45 244.33-19.85 259.83-19.85 259.83-14.4 244.33-14.4 244.33-2.15ZM263.78-2.15L268.63-2.15 268.63-34.95 274.53-34.95 274.53-2.15 279.38-2.15 279.38 0 263.78 0 263.78-2.15ZM279.38-2.15L284.23-2.15 284.23-34.95 290.13-34.95 310.43-8.85 310.43-34.95 316.32-34.95 316.32-2.15 321.18-2.15 321.18 0 309.93 0 290.13-25.5 290.13 0 279.38 0 279.38-2.15ZM348.72-2.15L360.27-2.15 360.27 0 321.17 0 321.17-2.15 326.02-2.15 326.02-34.95 338.02-34.95Q347.42-34.95 352.47-30.38 357.52-25.8 357.52-17.5L357.52-17.5Q357.52-6.35 348.72-2.15L348.72-2.15ZM351.57-17.5L351.57-17.5Q351.57-29.5 337.82-29.5L337.82-29.5 331.92-29.5 331.92-5.55 338.47-5.55Q344.82-5.55 348.2-8.58 351.57-11.6 351.57-17.5ZM360.27-2.15L365.12-2.15 365.12-34.95 389.67-34.95 389.67-29.4 371.02-29.4 371.02-20.15 387.77-20.15 387.77-14.9 371.02-14.9 371.02-5.55 390.27-5.55 390.27-2.15 395.12-2.15 395.12 0 360.27 0 360.27-2.15ZM425.77-2.15L430.62-2.15 430.62 0 419.82 0 411.47-11.75 403.72-11.75 403.72 0 392.97 0 392.97-2.15 397.82-2.15 397.82-34.95 410.82-34.95Q418.82-34.95 422.27-32.25 425.72-29.55 425.72-23.6L425.72-23.6Q425.72-14.95 418.17-12.7L418.17-12.7 425.77-2.15ZM411.07-17.1Q416.07-17.1 417.87-18.65 419.67-20.2 419.67-23.63 419.67-27.05 417.82-28.33 415.97-29.6 411.22-29.6L411.22-29.6 403.72-29.6 403.72-17.1 411.07-17.1Z" opacity="1" transform="matrix(1,0,0,1,0,0)" fill="#ffffff" class="undefined-text-1" data-fill-palette-color="quaternary" id="text-1"></path></svg></g></svg></g></svg></g></svg></g><g transform="matrix(1,0,0,1,50.07350298041047,0)"><svg viewBox="0 0 91.85299403917907 114.87162866087348" height="114.87162866087348" width="91.85299403917907"><g><svg xmlns="http://www.w3.org/2000/svg" xmlns:xlink="http://www.w3.org/1999/xlink" version="1.1" x="0" y="0" viewBox="14.017646789550781 5 71.96527862548828 89.99999237060547" enable-background="new 0 0 100 100" xml:space="preserve" height="114.87162866087348" width="91.85299403917907" class="icon-icon-0" data-fill-palette-color="quaternary" id="icon-0"><g fill="#ffffff" data-fill-palette-color="quaternary"><path fill-rule="evenodd" clip-rule="evenodd" d="M80.208 8.35c-0.833 0.434-2.184 0.567-4.05 0.4-1.834-0.2-3.384-0.633-4.65-1.3C74.041 6.717 76.941 7.017 80.208 8.35zM77.908 15.45c1.5-0.434 3.467-0.383 5.899 0.15 0.733 0.167 1.267 0.7 1.601 1.6 0.366 0.967 0.55 2.133 0.55 3.5 0.1 5.6-0.101 10.2-0.601 13.8-0.366 2.5-0.55 5.583-0.55 9.25 0.067 4.167 0.101 7.284 0.101 9.35-0.134 7.867-0.15 16.767-0.051 26.7 0 3.2-1.316 5.566-3.949 7.1-2.467 1.4-5.067 2.366-7.801 2.9-4.933 0.966-11.8 1.333-20.6 1.1l-13.3-0.75c-5.367-0.3-9.817-0.367-13.351-0.2-1.033 0.033-1.732-0.017-2.1-0.15-0.733-0.233-1.15-0.833-1.25-1.8-1.5-1-2.333-2.417-2.5-4.25 0-0.2 0.083-1.85 0.25-4.95 0.033-0.833-0.017-1.917-0.15-3.25-0.133-1.7-0.199-2.8-0.199-3.3-0.334-7.767-0.434-13.633-0.301-17.6 0.101-4.067 0.15-6.767 0.15-8.1-0.1-3.034-0.383-5.717-0.85-8.05-0.167-0.966-0.2-2.466-0.101-4.5-0.267-5.8-0.7-10.35-1.3-13.65-0.133-0.633-0.083-1.017 0.15-1.15 0.399-0.267 0.633-0.617 0.699-1.05 0-0.134-0.017-0.55-0.05-1.25-0.3-2.5 0.851-4.083 3.45-4.75 4.434-1.134 10.083-1.434 16.95-0.9 0.5 0.067 1.283 0.15 2.35 0.25 2.267-0.1 5.217-0.1 8.851 0 4.666 0.233 7.6 0.35 8.8 0.35 1.533 0 3.667 0.184 6.399 0.55 3.033 0.4 5.167 0.633 6.4 0.7 1.467 0.067 2.55 0.067 3.25 0 0.9-0.1 1.35 0.233 1.35 1 0 0.733-0.482 1.1-1.449 1.1l-1.2-0.25c-1.3-0.2-2.15 0.417-2.55 1.85-0.268 0.833-0.434 2.117-0.5 3.85l-0.15 6c0 0.833-0.35 1.383-1.05 1.65-0.667 0.2-1.2-0.133-1.601-1-0.5-0.967-1.467-2.2-2.899-3.7-0.7 0.7-1.4 1.967-2.101 3.8-0.333 0.966-0.949 1.35-1.85 1.15-0.633-0.133-0.95-0.684-0.95-1.65l-0.3-8.7c-0.033-0.667-0.066-1.667-0.1-3-0.233-1.167-0.934-1.717-2.101-1.65-1.433 0.066-3.816-0.034-7.149-0.3-3.101-0.2-5.5-0.216-7.2-0.05-0.767 0.1-1.717 0.083-2.851-0.05-1.267-0.134-2.217-0.217-2.85-0.25-1.7 0-3-0.05-3.9-0.15-2.5-0.233-4.866 0.233-7.1 1.4-1.767 0.966-3.633 2.483-5.6 4.55-0.533 0.6-0.733 1.316-0.601 2.15 0.233 1.033 0.384 1.85 0.45 2.45 0.566-0.633 2.117-2.117 4.65-4.45 1.899-1.7 3.316-3.2 4.25-4.5l0.6-0.65c0.233-0.2 0.5-0.167 0.8 0.1 0.5 0.433 0.417 0.933-0.25 1.5l-8.649 7.95c-0.9 0.934-1.4 1.6-1.5 2-0.101 0.367-0.018 1.2 0.25 2.5l8.699-7.95c0.533-0.434 0.967-0.483 1.301-0.15 0.467 0.466 0.366 0.883-0.301 1.25-0.8 0.466-1.699 1.2-2.699 2.2-1.367 1.367-2.167 2.167-2.4 2.4-0.333 0.267-1.233 1.184-2.7 2.75-1.5 1.6-1.967 3.684-1.399 6.25l7.699-7.4c0.533-0.533 1.051-0.967 1.551-1.3 0.166-0.167 0.366-0.15 0.6 0.05 0.167 0.1 0.25 0.2 0.25 0.3 0.033 0.167-0.017 0.316-0.15 0.45l-1.85 1.9c-3.434 3.034-5.583 4.967-6.45 5.8-1.167 1.133-1.8 2.066-1.899 2.8-0.067 0.733 0.267 1.967 1 3.7 1.467-1.133 3.583-3.25 6.35-6.35l1.05-1.4c0.3-0.3 0.567-0.367 0.8-0.2 0.434 0.167 0.5 0.483 0.2 0.95-0.933 1.167-1.649 2-2.149 2.5-1.5 1.6-2.667 2.733-3.5 3.4-2.7 2.133-3.634 4.833-2.801 8.1l8.65-9.05c0.2 0.7 0.167 1.333-0.1 1.9-0.101 0.2-0.4 0.566-0.9 1.1l-4.25 4.2c-1.3 1.233-2.217 2.4-2.75 3.5-0.667 1.367-0.9 2.833-0.7 4.4 0 0.2-0.05 0.9-0.149 2.1-0.067 0.867 0.017 1.617 0.25 2.25 1.133-1.067 2.5-2.75 4.1-5.05 1.667-2.434 2.95-4.134 3.85-5.1l0.7 0.5c-1.433 2.2-2.517 3.8-3.25 4.8-1.267 1.733-2.483 3.2-3.649 4.4-1.9 1.934-2.417 4.55-1.551 7.85l6.75-9c0.167-0.3 0.417-0.383 0.75-0.25 0.5 0.2 0.567 0.533 0.2 1l-1.8 2.35c-0.5 0.633-2.2 2.867-5.1 6.7-0.601 0.8-0.95 1.683-1.051 2.65-0.033 0.7 0.051 1.767 0.25 3.2 1.334-1.333 3.334-3.8 6-7.4 0.033-0.1 0.217-0.45 0.551-1.05 0.267-0.434 0.6-0.55 1-0.35 0.433 0.267 0.5 0.633 0.199 1.1l-2.6 3.6c-1.167 1.6-2.3 3.017-3.4 4.25-1.333 1.667-1.767 3.433-1.3 5.3 0.367 0.1 0.7 0.017 1-0.25 0.134-0.167 0.317-0.467 0.55-0.9l4.45-6c0.134-0.167 0.317-0.467 0.55-0.9 0.301-0.233 0.634-0.2 1 0.1 0.301 0.233 0.351 0.483 0.15 0.75-0.333 0.267-0.55 0.467-0.65 0.6l-5.949 8.35c-0.667 1.033-1.033 1.917-1.101 2.65-0.033 0.767 0.167 1.95 0.601 3.55 0.566-1.367 1.633-2.9 3.199-4.6 1.768-1.8 2.867-3.167 3.301-4.1 0.433-0.8 0.933-1 1.5-0.6 0.333 0.233 0.449 0.483 0.35 0.75-0.066 0.1-0.267 0.333-0.6 0.7l-5.4 6c-0.467 0.433-0.783 0.75-0.95 0.95-0.3 0.4-0.217 0.8 0.25 1.2 0.4 0.333 0.8 0.333 1.2 0 0.066-0.1 0.367-0.467 0.9-1.1 1.267-1.367 2.316-2.8 3.149-4.3 0.3-0.5 0.65-0.6 1.05-0.3 0.334 0.2 0.384 0.55 0.15 1.05-0.833 1.367-1.8 2.633-2.9 3.8-0.467 0.467-0.8 0.833-1 1.1-0.399 0.4-0.666 0.85-0.8 1.35 0.867 0.3 1.55 0.367 2.05 0.2 0.634-0.167 1.101-0.65 1.4-1.45 0.233-0.633 0.617-0.833 1.15-0.6 0.3 0.133 0.449 0.316 0.449 0.55-0.033 0.1-0.133 0.333-0.3 0.7-0.2 0.367-0.183 0.633 0.05 0.8 0.134 0.1 0.417 0.167 0.851 0.2l6 0.35c9.467 0.433 15.149 0.667 17.05 0.7 6.133 0.167 11.3-0.066 15.5-0.7 1.8-0.267 3.316-1.133 4.55-2.6 1.167-1.467 1.717-3.033 1.65-4.7-0.101-3-0.033-6.583 0.2-10.75 0.133-2.433 0.35-6.033 0.649-10.8 0.167-3.333 0.184-7.333 0.05-12-0.133-2.667-0.3-6.65-0.5-11.95-0.033-1.5-0.083-3.733-0.149-6.7-0.033-2.633 0.033-4.883 0.2-6.75 0.199-1.8 0-3.267-0.601-4.4C76.208 16.617 76.574 15.883 77.908 15.45zM79.408 18.6c-0.033 1.567-0.051 2.75-0.051 3.55-0.199 6.733-0.1 13.033 0.301 18.9 0.3 4.1 0.433 8.167 0.399 12.2-0.433 11.067-0.683 19.383-0.75 24.95 0 3.433-0.566 6.35-1.7 8.75 1.7-0.8 2.95-1.684 3.75-2.65 0.834-1.067 1.268-2.4 1.301-4 0-0.4 0.05-1.15 0.149-2.25 0.067-0.967 0.083-1.717 0.05-2.25-0.033-2.1 0.117-8.367 0.45-18.8 0.167-5.2 0.184-9.066 0.05-11.6-0.133-1.967-0.116-4.167 0.051-6.6 0.033-1.067 0.199-3.25 0.5-6.55 0.199-3.433 0.3-5.417 0.3-5.95 0.1-2.267-0.017-4.267-0.351-6-0.166-1.1-0.433-1.833-0.8-2.2-0.333-0.333-1.05-0.633-2.149-0.9-0.634-0.167-1.051-0.117-1.25 0.15C79.458 17.55 79.375 17.967 79.408 18.6zM65.458 7c-0.7 0.567-1.65 0.767-2.851 0.6-1.967-0.3-4.517-0.533-7.649-0.7-4.134-0.2-6.65-0.35-7.55-0.45l-1.551-0.1c-0.333-0.1-0.5-0.316-0.5-0.65 0-0.367 0.2-0.55 0.601-0.55 0.3-0.1 0.7-0.15 1.2-0.15 3.399 0.067 9.267 0.483 17.6 1.25C65.058 6.25 65.291 6.5 65.458 7zM61.357 15.05c-0.166 3.9-0.133 6.917 0.101 9.05 0.833-0.5 1.217-1.15 1.149-1.95 0-1.034 0.367-1.65 1.101-1.85 0.833-0.233 1.566 0.133 2.2 1.1 0.199 0.366 0.533 0.917 1 1.65 0.399 0.566 0.899 0.966 1.5 1.2 0.199-0.633 0.316-1.417 0.35-2.35 0-0.5 0-1.233 0-2.2 0.133-2.667 0-4.25-0.4-4.75-0.467-0.5-2.05-0.85-4.75-1.05l-0.899-0.05C61.808 13.75 61.357 14.15 61.357 15.05zM60.658 35.2c-0.5-0.067-0.834-0.05-1 0.05l-8-1.45c-0.768-0.167-1.067-0.5-0.9-1 0.1-0.3 0.267-0.45 0.5-0.45 0.167 0 0.417 0.05 0.75 0.15 0.467 0.034 1.733 0.284 3.8 0.75 1.567 0.333 2.851 0.434 3.851 0.3 1.066-0.067 1.6 0.25 1.6 0.95C61.225 34.967 61.024 35.2 60.658 35.2zM59.308 37.2c1.4-0.4 2.55-0.184 3.45 0.65 0.934 0.9 1.267 2.05 1 3.45-0.367 1.9-0.717 3.283-1.05 4.15-0.567 1.467-1.384 2.65-2.45 3.55-1.566 1.4-3.5 1.983-5.8 1.75-0.533-0.066-0.934-0.1-1.2-0.1-0.467 0.033-0.816 0.216-1.05 0.55-1.267 1.533-2.167 2.717-2.7 3.55-0.133 0.167 0.083 0.583 0.65 1.25 2 2.567 3.283 4.1 3.85 4.6l1.45 1.5c0.5 0.533 0.45 1.184-0.15 1.95-0.533 0.667-1.116 0.583-1.75-0.25l-3.85-4.95c-0.967-1.3-1.601-2.083-1.9-2.35-0.7 0.6-1.45 1.4-2.25 2.4-1.167 1.533-1.816 2.366-1.95 2.5-0.199 0.267-0.883 1.116-2.05 2.55-0.533 0.667-0.883 1.05-1.05 1.15-0.467 0.333-0.9 0.333-1.3 0-0.5-0.467-0.583-0.9-0.25-1.3 0.2-0.267 0.566-0.6 1.1-1 1.134-1.4 2.9-3.434 5.3-6.1 1.2-1.3 1.334-2.55 0.4-3.75-0.367-0.467-1.083-1.55-2.15-3.25-0.6-1.1-1.533-1.733-2.8-1.9-1.066-0.1-2.35-0.983-3.85-2.65-1.467-1.634-2.25-3-2.351-4.1 0-0.367 0.134-0.6 0.4-0.7 0.2-0.066 0.383-0.066 0.55 0 0.267 0.1 0.5 0.3 0.7 0.6 0.133 0.133 0.316 0.367 0.55 0.7 0.767 1.066 1.25 1.7 1.45 1.9 0.566 0.733 1.233 1.283 2 1.65 0-0.767-0.25-1.6-0.75-2.5-0.667-1.133-1.05-1.867-1.15-2.2-0.033-0.2-0.116-0.5-0.25-0.9-0.033-0.333 0.101-0.583 0.4-0.75 0.4-0.233 0.85 0.05 1.35 0.85 0.167 0.233 0.634 1.1 1.4 2.6 0.566 1.1 1.133 1.917 1.7 2.45 0.7-0.966 1.05-1.733 1.05-2.3 0.033-0.633-0.283-1.35-0.95-2.15l-2.3-2.3c-0.5-0.466-0.55-0.9-0.15-1.3 0.4-0.467 0.867-0.533 1.4-0.2 1.733 1 2.917 2.4 3.55 4.2 0.601 1.833 0.483 3.683-0.35 5.55-0.434 0.934-0.467 1.667-0.101 2.2l2.95 4.8 2.65-3.05c0.333-0.4 0.483-0.867 0.45-1.4-0.334-1.867-0.117-3.7 0.649-5.5 0.634-1.267 1.7-2.8 3.2-4.6 0.633-0.8 1.217-1.133 1.75-1 0.434 0.1 0.867 0.066 1.3-0.1C58.357 37.534 58.774 37.4 59.308 37.2zM54.658 47.95c0.699 0.5 1.416 0.667 2.149 0.5 1.5-0.367 2.8-1.417 3.9-3.15 1.1-1.733 1.45-3.35 1.05-4.85-0.233-1.133-0.9-1.684-2-1.65-1.5 0.033-2.983 0.9-4.45 2.6-1.433 1.6-2.05 3.183-1.85 4.75C53.591 46.883 53.991 47.483 54.658 47.95zM80.857 32.35c-0.533-4.633-0.267-8.517 0.801-11.65v11.65H80.857zM82.408 66.85c0.1 1.533 0.017 2.85-0.25 3.95-0.233 1.033-0.384 2.267-0.45 3.7 0 0.167 0 1.417 0 3.75 0 0.967-0.017 1.667-0.05 2.1-0.134 0.833-0.417 1.483-0.851 1.95l-0.75-0.05 1.5-19.4c0.367 0 0.55 0.017 0.55 0.05C82.241 64.667 82.341 65.983 82.408 66.85zM54.758 71.3l-5.45-0.3c-1.6 0.1-4.533-0.033-8.8-0.4-0.867 0-1.267-0.283-1.2-0.85 0.033-0.433 0.434-0.583 1.2-0.45 1.867 0.3 4.133 0.466 6.8 0.5 1.5 0.033 3.783 0.066 6.851 0.1 0.433 0 0.717 0.033 0.85 0.1 0.3 0.067 0.4 0.317 0.3 0.75C55.274 71.083 55.091 71.267 54.758 71.3zM61.958 70.85c0.7 0.1 0.967 0.4 0.8 0.9s-0.467 0.667-0.9 0.5c-0.732-0.233-1.166-0.383-1.3-0.45-0.433-0.2-0.783-0.534-1.05-1 0.367-0.167 0.816-0.217 1.35-0.15C61.091 70.717 61.458 70.784 61.958 70.85zM63.107 93.7c0.367 0.066 0.634 0.267 0.801 0.6-0.134 0.433-0.384 0.667-0.75 0.7-0.467 0-0.801 0-1 0l-14.4-0.05c-0.5 0-0.783-0.017-0.85-0.05-0.301-0.167-0.467-0.384-0.5-0.65-0.101-0.367 0.066-0.6 0.5-0.7 0.333-0.067 0.616-0.083 0.85-0.05 1.767 0.267 4.15 0.333 7.15 0.2 3.5-0.133 5.899-0.15 7.199-0.05C62.308 93.684 62.641 93.7 63.107 93.7zM75.458 93.2c1.767-0.133 2.933-0.3 3.5-0.5 0.566-0.2 1.533-0.867 2.899-2 1.134-0.967 2.217-1.517 3.25-1.65-2.433 4.3-6.75 6-12.949 5.1C72.891 93.65 73.991 93.333 75.458 93.2zM20.008 17.4c1.5-0.9 2.717-2.083 3.65-3.55-1.101 0.3-1.934 0.667-2.5 1.1C20.591 15.517 20.208 16.333 20.008 17.4zM44.008 33.5c-1-0.133-2.017-0.617-3.05-1.45 0.833 0.033 2.017 0.083 3.55 0.15 1.333 0.066 2.517 0.267 3.55 0.6C46.391 33.4 45.041 33.633 44.008 33.5zM14.658 57.6c-0.533-3.167-0.733-5.65-0.601-7.45 0-0.733 0.25-1.117 0.75-1.15 0.5 0 0.75 0.367 0.75 1.1l0.05 7.8C14.975 58.034 14.658 57.934 14.658 57.6zM14.308 63.35c0.033-0.3 0.233-0.467 0.601-0.5 0.433-0.033 0.732 0.3 0.899 1l0.4 2.3c0.233 1.833 0.35 4.316 0.35 7.45 0.033 3.667 0.083 6.15 0.15 7.45 0.1 0.867-0.167 1.333-0.8 1.4-0.533 0.033-0.851-0.383-0.95-1.25-0.101-0.8-0.101-1.75 0-2.85 0.066-0.6 0.183-1.533 0.35-2.8l-1-11.35C14.241 63.767 14.241 63.483 14.308 63.35zM15.408 87.9c-0.2-0.467-0.033-0.75 0.5-0.85 0.6-0.067 0.982 0.267 1.149 1-0.1 0.6-0.3 0.917-0.6 0.95-0.333 0.034-0.583-0.083-0.75-0.35C15.675 88.583 15.574 88.333 15.408 87.9z" fill="#ffffff" data-fill-palette-color="quaternary"></path></g></svg></g></svg></g><g></g></svg></g></svg></g></svg></g><defs></defs></svg><rect width="320" height="360" fill="none" stroke="none" visibility="hidden"></rect></g></svg></g></svg>