<svg xmlns="http://www.w3.org/2000/svg" version="1.1" xmlns:xlink="http://www.w3.org/1999/xlink" xmlns:svgjs="http://svgjs.dev/svgjs" width="1000" height="691" viewBox="0 0 1000 691"><g transform="matrix(1,0,0,1,0.699584722488396,0.2797590365261158)"><svg viewBox="0 0 357 247" data-background-color="#ffffff" preserveAspectRatio="xMidYMid meet" height="691" width="1000" xmlns="http://www.w3.org/2000/svg" xmlns:xlink="http://www.w3.org/1999/xlink"><g id="tight-bounds" transform="matrix(1,0,0,1,-0.24975165872746175,-0.10000069757157348)"><svg viewBox="0 0 357.4995034046559 247.2" height="247.2" width="357.4995034046559"><g><svg viewBox="0 0 395.52 273.4900134653632" height="247.2" width="357.4995034046559"><g transform="matrix(1,0,0,1,0,203.49005438607932)"><svg viewBox="0 0 395.52 69.99995907928388" height="69.99995907928388" width="395.52"><g><svg viewBox="0 0 395.52 69.99995907928388" height="69.99995907928388" width="395.52"><g><svg viewBox="0 0 395.52 69.99995907928388" height="69.99995907928388" width="395.52"><g transform="matrix(1,0,0,1,0,0)"><svg width="395.52" viewBox="1.9500000476837158 -34.29999923706055 195.49000549316406 34.599998474121094" height="69.99995907928388" data-palette-color="#ba3b0a"><path d="M26.85-30.15L22.35-25.6Q20.95-27.3 19.65-27.88 18.35-28.45 17.05-28.45L17.05-28.45Q13.8-28.45 12.33-25.43 10.85-22.4 10.85-17.05L10.85-17.05Q10.85-14.5 11.18-12.38 11.5-10.25 12.3-8.75 13.1-7.25 14.43-6.4 15.75-5.55 17.75-5.55L17.75-5.55Q19.5-5.55 21.18-5.98 22.85-6.4 24.25-6.95L24.25-6.95 26.05-1.35Q24.5-0.7 22.15-0.2 19.8 0.3 16.75 0.3L16.75 0.3Q9.05 0.3 5.5-4.08 1.95-8.45 1.95-16.5L1.95-16.5Q1.95-20.4 2.88-23.65 3.8-26.9 5.68-29.28 7.55-31.65 10.38-32.98 13.2-34.3 17.05-34.3L17.05-34.3Q19.05-34.3 20.58-33.95 22.1-33.6 23.25-33.02 24.4-32.45 25.28-31.7 26.15-30.95 26.85-30.15L26.85-30.15ZM44.45-34.3Q48.4-34.3 51.25-33.1 54.1-31.9 55.95-29.7 57.8-27.5 58.67-24.33 59.55-21.15 59.55-17.2L59.55-17.2Q59.55-13.3 58.57-10.08 57.6-6.85 55.65-4.55 53.7-2.25 50.75-0.98 47.8 0.3 43.8 0.3L43.8 0.3Q39.85 0.3 36.97-0.83 34.1-1.95 32.25-4.13 30.4-6.3 29.52-9.4 28.65-12.5 28.65-16.5L28.65-16.5Q28.65-20.4 29.62-23.68 30.6-26.95 32.55-29.33 34.5-31.7 37.47-33 40.45-34.3 44.45-34.3L44.45-34.3ZM43.75-28.45Q40.5-28.45 39.02-25.43 37.55-22.4 37.55-17.05L37.55-17.05Q37.55-14.5 37.87-12.4 38.2-10.3 38.97-8.78 39.75-7.25 41.1-6.4 42.45-5.55 44.5-5.55L44.5-5.55Q47.75-5.55 49.2-8.45 50.65-11.35 50.65-16.7L50.65-16.7Q50.65-19.25 50.32-21.4 50-23.55 49.22-25.13 48.45-26.7 47.1-27.58 45.75-28.45 43.75-28.45L43.75-28.45ZM79.1-34.3Q83.05-34.3 85.9-33.1 88.75-31.9 90.6-29.7 92.45-27.5 93.32-24.33 94.2-21.15 94.2-17.2L94.2-17.2Q94.2-13.3 93.22-10.08 92.25-6.85 90.3-4.55 88.35-2.25 85.4-0.98 82.45 0.3 78.45 0.3L78.45 0.3Q74.5 0.3 71.62-0.83 68.75-1.95 66.9-4.13 65.05-6.3 64.17-9.4 63.3-12.5 63.3-16.5L63.3-16.5Q63.3-20.4 64.27-23.68 65.25-26.95 67.2-29.33 69.15-31.7 72.12-33 75.1-34.3 79.1-34.3L79.1-34.3ZM78.4-28.45Q75.15-28.45 73.67-25.43 72.2-22.4 72.2-17.05L72.2-17.05Q72.2-14.5 72.52-12.4 72.85-10.3 73.62-8.78 74.4-7.25 75.75-6.4 77.1-5.55 79.15-5.55L79.15-5.55Q82.4-5.55 83.85-8.45 85.3-11.35 85.3-16.7L85.3-16.7Q85.3-19.25 84.97-21.4 84.65-23.55 83.87-25.13 83.1-26.7 81.75-27.58 80.4-28.45 78.4-28.45L78.4-28.45ZM99.19 0L99.19-33.85 107.44-33.85 107.44 0 99.19 0ZM125.59-33.85Q124.89-30.3 123.97-27.75 123.04-25.2 121.94-23.33 120.84-21.45 119.59-20.15 118.34-18.85 116.99-17.8L116.99-17.8 128.69 0 119.49 0 107.99-18.55 107.99-19.15Q110.19-20.2 111.72-21.63 113.24-23.05 114.29-24.88 115.34-26.7 116.07-28.93 116.79-31.15 117.39-33.85L117.39-33.85 125.59-33.85ZM131.09 0L131.09-33.85 139.34-33.85 139.34 0 131.09 0ZM145.54 0L145.54-33.85 167.09-33.85 167.09-27.85 153.79-27.85 153.79-20.1 164.94-20.1 163.94-14.15 153.79-14.15 153.79 0 145.54 0ZM178.44 0L178.44-13 167.99-33.85 176.69-33.85 182.69-20.9 188.84-33.85 197.44-33.85 186.64-12.55 186.64 0 178.44 0Z" opacity="1" transform="matrix(1,0,0,1,0,0)" fill="#ba3b0a" class="undefined-text-0" data-fill-palette-color="primary" id="text-0"></path></svg></g></svg></g></svg></g></svg></g><g transform="matrix(1,0,0,1,112.54028314656135,0)"><svg viewBox="0 0 170.43943370687728 170.43943370687728" height="170.43943370687728" width="170.43943370687728"><g><svg></svg></g><g id="icon-0"><svg viewBox="0 0 170.43943370687728 170.43943370687728" height="170.43943370687728" width="170.43943370687728"><g><path d="M0 85.22c0-47.066 38.154-85.22 85.22-85.22 47.066 0 85.22 38.154 85.219 85.22 0 47.066-38.154 85.22-85.219 85.219-47.066 0-85.22-38.154-85.22-85.219zM85.22 164.127c43.579 0 78.907-35.328 78.907-78.907 0-43.579-35.328-78.907-78.907-78.907-43.579 0-78.907 35.328-78.907 78.907 0 43.579 35.328 78.907 78.907 78.907z" data-fill-palette-color="accent" fill="#ba3b0a" stroke="transparent"></path><ellipse rx="84.36751968490425" ry="84.36751968490425" cx="85.21971685343864" cy="85.21971685343864" fill="#ba3b0a" stroke="transparent" stroke-width="0" fill-opacity="1" data-fill-palette-color="accent"></ellipse></g><g transform="matrix(1,0,0,1,35.90322356284959,48.66774407247284)"><svg viewBox="0 0 98.6329865811781 73.1039455619316" height="73.1039455619316" width="98.6329865811781"><g><svg xmlns="http://www.w3.org/2000/svg" xmlns:xlink="http://www.w3.org/1999/xlink" version="1.1" x="0" y="0" viewBox="164.5 244.99998474121094 688.0999755859375 510" style="enable-background:new 0 0 1000 1000;" xml:space="preserve" height="73.1039455619316" width="98.6329865811781" class="icon-a-0" data-fill-palette-color="quaternary" id="a-0"><g fill="#ffffff" data-fill-palette-color="quaternary"><path d="M813.7 711.8l-26.9-4.8c0.3-4.7 0.5-9.8 0.5-15.4 0.1-12.9-0.8-27.9-3.3-43.8-1.3-7.9-3-16-5.3-24.1-2.3-8.1-5-16.2-8.3-24.1-3.3-7.9-7.1-15.5-11.4-22.7-4.3-7.2-9-13.9-14-20.1-5-6.1-10.2-11.7-15.4-16.6-5.2-4.9-10.5-9.3-15.5-12.9-5-3.7-9.8-6.9-14.1-9.4-1.1-0.7-2.1-1.3-3.1-1.9-1-0.6-2-1.1-3-1.7-1.9-1.1-3.6-2-5.3-2.8-1.6-0.8-3-1.5-4.3-2.2-1.3-0.6-2.3-1.1-3.2-1.5-1.6-0.8-2.6-1.2-2.7-1.2 0.1 0.1 1 0.6 2.5 1.5 0.8 0.5 1.8 1.1 3 1.9 1.2 0.7 2.5 1.6 4 2.6 1.5 1 3.1 2.1 4.9 3.4 0.9 0.6 1.8 1.3 2.7 2 0.9 0.7 1.9 1.4 2.9 2.2 3.9 3 8.2 6.6 12.7 10.8 4.5 4.1 9 8.9 13.4 14.1 4.5 5.3 8.8 11.1 12.8 17.4 4 6.3 7.7 13.1 10.9 20.2 3.2 7.1 5.9 14.5 8.1 22.1 2.2 7.5 3.9 15.2 5.1 22.9 1.2 7.6 1.9 15.2 2.3 22.5 0.7 14.7-0.1 28.4-1.5 40-0.5 4.3-1.1 8.4-1.8 12.1L201.5 601.6C228.2 453.3 386.9 357.7 556 388.1 725 418.6 840.4 563.5 813.7 711.8z" fill="#ffffff" data-fill-palette-color="quaternary"></path><path d="M564.4 298.2c-21.2-3.8-41.5 10.3-45.3 31.5-3.8 21.2 10.3 41.5 31.5 45.3 21.2 3.8 41.5-10.3 45.3-31.5C599.7 322.3 585.6 302 564.4 298.2zM585.2 325.3c-1.6 9.1-10.3 15.1-19.4 13.5-9.1-1.6-15.1-10.3-13.5-19.4 1.6-9.1 10.3-15.1 19.4-13.5C580.8 307.5 586.8 316.2 585.2 325.3z" fill="#ffffff" data-fill-palette-color="quaternary"></path><path d="M841.6 755H175.5c-6.1 0-11-5-11-11l0 0c0-6.1 5-11 11-11h666.1c6.1 0 11 5 11 11l0 0C852.6 750.1 847.7 755 841.6 755z" fill="#ffffff" data-fill-palette-color="quaternary"></path><path d="M200.8 475.3c5.6 14.9 5.6 28.3 1.5 38-3.7 9.7-11.5 15.8-11.1 15.8-0.5 0 2.6-6 1.5-15.8-0.7-9.7-5.5-23.2-11.1-38-5.6-14.9-5.6-28.3-1.5-38 3.7-9.7 11.5-15.8 11.1-15.8 0.5 0-2.6 6-1.5 15.8C190.4 447 195.3 460.4 200.8 475.3z" fill="#ffffff" data-fill-palette-color="quaternary"></path><path d="M221.8 421.3c5.6 14.9 5.6 28.3 1.5 38-3.7 9.7-11.5 15.8-11.1 15.8-0.5 0 2.6-6 1.5-15.8-0.7-9.7-5.5-23.2-11.1-38-5.6-14.9-5.6-28.3-1.5-38 3.7-9.7 11.5-15.8 11.1-15.8 0.5 0-2.6 6-1.5 15.8C211.4 393 216.3 406.4 221.8 421.3z" fill="#ffffff" data-fill-palette-color="quaternary"></path><path d="M344.6 298.8c-5.6 14.9-5.6 28.3-1.5 38 3.7 9.7 11.5 15.8 11.1 15.8 0.5 0-2.6-6-1.5-15.8 0.7-9.7 5.5-23.2 11.1-38 5.6-14.9 5.6-28.3 1.5-38-3.7-9.7-11.5-15.8-11.1-15.8-0.5 0 2.6 6 1.5 15.8C355 270.5 350.2 283.9 344.6 298.8z" fill="#ffffff" data-fill-palette-color="quaternary"></path></g></svg></g></svg></g></svg></g></svg></g><g></g></svg></g><defs></defs></svg><rect width="357.4995034046559" height="247.2" fill="none" stroke="none" visibility="hidden"></rect></g></svg></g></svg>